<svg xmlns="http://www.w3.org/2000/svg" xmlns:xlink="http://www.w3.org/1999/xlink" id="SC_logo_blanco" x="0px" y="0px" viewBox="0 0 1080 222.1" style="enable-background:new 0 0 1080 222.1;" xml:space="preserve"><style type="text/css">	.st0{fill-rule:evenodd;clip-rule:evenodd;fill:#12100B;}	.st1{fill-rule:evenodd;clip-rule:evenodd;fill:#E20613;}	.st2{fill:#FFFFFF;}	.st3{fill:#FFD400;}</style><g>	<g>		<path class="st0" d="M602.9,89.1c6.9-20.1-2.5-31.4-26.4-31.4c-24,0-41.1,11.3-48,31.4l-18.3,53.2c-7.1,20.6,7.3,29.6,27,29.6   c19.7,0,40.3-9,47.4-29.6L602.9,89.1L602.9,89.1z M560.4,85.7c1.4-4.1,4.2-7.8,9.1-7.8c4.9,0,5.2,3.7,3.8,7.8l-20,58.1   c-1.4,4.1-4.2,7.8-9.1,7.8c-4.9,0-5.2-3.7-3.8-7.8L560.4,85.7L560.4,85.7z"></path>		<path class="st0" d="M445.3,76.2l6.1-17.9c9.7-28.2-9.7-37.2-36.3-37.2c-30.4,0-54.5,11.6-65,42.2c-18.8,54.5,41.2,55.2,28.1,93.4   c-3.4,10-8.4,12.8-14.8,12.8c-7.3,0-9.4-2.9-6-12.8l7-20.4c1.4-4.7,0-8.5-3.4-8.5h-26.7c-3.5,0-7.7,4.1-9.5,9l-2.2,6.6l0,0   l-5.4,15.5c-10,29.2,11.5,37.8,36.6,37.8c33,0,55.1-14.7,66-46.5c18-52.2-39.4-60.5-29.7-88.9c2.9-8.3,6.4-13,14.9-13   c7.8,0,8.8,4.7,6,13l-1.9,5.6h0c-0.1,0.1-0.1,0.3-0.2,0.4l-1.5,4.2l-1.6,4.6c-1.6,4.8-0.2,8.7,3.2,8.8h26.9   C439.5,84.8,443.6,80.9,445.3,76.2L445.3,76.2z"></path>		<path class="st0" d="M455.3,66l-40,116.1h0L414,186c-1.3,3.9-0.2,7.1,2.5,7.1h20.8c2.6,0,5.8-2.9,7.2-6.5l10.6-30.7h0.4   c-0.8,10.1,5,16,16.3,16c15.6,0,25.1-10.6,29.8-24.2l21.2-61.6c4.8-14,4.7-28.5-12.2-28.5c-11.3,0-21.2,4.3-26.8,16h-0.4l1.9-5.5   h0l0.6-1.7c1.3-3.9,0.2-7.1-2.5-7.1h-20.9C459.9,59.3,456.7,62.3,455.3,66L455.3,66z M477.6,90.6c1.7-4.9,5.3-7.6,9-7.6   c3.7,0,5.5,2.7,3.8,7.6l-16.6,48.4c-1.7,4.9-5.3,7.6-9,7.6c-3.7,0-5.5-2.7-3.8-7.6L477.6,90.6L477.6,90.6z"></path>		<path class="st0" d="M616.7,68.4l-30.9,89.8l0,0l-1.4,4.2c-1.3,3.9-0.2,7.1,2.5,7.1h20.8c2.6,0,5.8-3,7.3-6.6l24.3-70.6   c1.5-4.5,4.5-9.2,9.6-9.2c5.1,0,4.8,4.7,3.3,9.2l-5.2,14.9h0l-1.6,4.7c-1.4,3.9-0.2,7.1,2.5,7.1h20.9c2.6,0,5.7-2.9,7.2-6.5   l11.3-32.9c4-11.5,2.3-21.9-13.3-21.9c-11.3,0-20.3,6.2-27.7,16h-0.6l2.8-8c0.9-3.5-0.2-6.3-2.8-6.3h-20.9c-2.7,0-6.1,3.2-7.4,7.1   L616.7,68.4L616.7,68.4L616.7,68.4z"></path>		<path class="st1" d="M809.9,135.1l-7.3,20.7c-2.4,6.9-6.7,13.3-15.2,13.3c-8.1,0-8-6.4-5.6-13.3L814.4,61   c2.4-6.9,6.7-13.3,14.8-13.3c8.5,0,8.5,6.4,6.1,13.3l-4.9,14.2c-1.4,4.7,0.1,8.5,3.4,8.5h26.7c3.5,0,7.8-4.1,9.5-9l0.3-0.8   l2.8-8.1c12.6-36.5-5.8-45.1-34.5-45.1c-26.1,0-53.2,10.7-66.5,49.3l-26.4,76.8c-13.3,38.7,6.5,49.4,32.6,49.4   c33.2,0,55.3-15.2,66.1-46.8l5-14.6c0.9-4.2-0.6-7.4-3.7-7.4h-26.6C815.7,127.4,811.9,130.8,809.9,135.1L809.9,135.1z"></path>		<path class="st1" d="M879.2,156.2l39.2-113.9l0,0l1.1-3.1c1.3-3.9,0.2-7-2.5-7h-20.7c-2.6,0-5.6,2.8-7.1,6.4l-42.9,124.8   c-0.9,3.5,0.2,6.2,2.8,6.2h20.7c2.7,0,6-3.1,7.4-7L879.2,156.2L879.2,156.2L879.2,156.2z"></path>		<path class="st1" d="M959,158.6l30.4-88.5l0.1-0.2l1.3-3.6c1.3-3.8,0.1-6.9-2.6-6.9h-20.7c-2.6,0-5.7,2.9-7.1,6.4l-24.1,70.1   c-1.7,4.8-4.2,10.1-10,10.1c-5.8,0-4.4-5.3-2.7-10.1l24.1-70.2c1-3.6-0.2-6.4-2.8-6.4h-20.7c-2.7,0-6,3.2-7.4,7l-1.3,3.7l0,0   l-26,75.7c-5.5,15.9-1.8,25.4,12,25.4c12,0,21.2-5.4,27.5-15.1h0.4l-2.5,7.3c-0.9,3.4,0.3,6.1,2.8,6.1h20.7c2.7,0,6-3.1,7.3-7   L959,158.6L959,158.6L959,158.6z"></path>		<path class="st1" d="M994.8,163l2.5-7.2h0.4c-2.2,11,4.6,15.3,15.8,15.3c16.8,0,26.8-14.4,31.4-27.7l21-61.2   c4.9-14.1,2.7-24.6-12.8-24.6c-11.2,0-21.2,6.4-27.3,16.5h-0.4l12.2-35.5c1.1-3.6-0.1-6.5-2.7-6.5h-20.7c-2.6,0-5.8,2.9-7.2,6.6   l-42.6,124c-1.2,3.7-0.1,6.8,2.6,6.8h20.7C990.3,169.4,993.4,166.6,994.8,163L994.8,163z M1019.8,90.4c1.7-4.8,5.3-7.6,9-7.6   c3.7,0,5.5,2.7,3.8,7.6l-16.5,48c-1.7,4.8-5.3,7.5-9,7.5c-3.7,0-5.4-2.7-3.8-7.5L1019.8,90.4L1019.8,90.4z"></path>		<path class="st0" d="M703.3,83.5l-21.8,63.8c-5,14.7-4.3,23.3,11.2,23.3h20.5h1.5v0h3.4c3.2,0,7.1-3.7,8.7-8.3l2.7-7.9   c1.5-4.3,0.4-7.8-2.4-8.2h-6.8c-7.2,0-6.2-3.5-3.9-10.2l17.9-52.5h14.7h7.8c3.1-0.5,6.6-4.1,8.1-8.3l2.8-8.1   c1.5-4.3,0.4-7.9-2.4-8.4h-9.3h-13.1l4.7-13.8c0.9-3.5-0.3-6.2-2.8-6.2h-20.9c-2.7,0-6,3.1-7.4,6.9l-4.5,13.1c-2.5,0-5,0-7.5,0   c-3.2,0-7.2,3.8-8.8,8.4l-2.8,8c-1.5,4.3-0.4,7.9,2.5,8.3h2.9H703.3L703.3,83.5z"></path>		<g>			<path class="st2" d="M144.3,35.6c74.7-18.3,139.1,0,139.1,46.6c0,46.6-60,94.6-134.7,112.9C74,213.5,12.2,192.5,12.2,148.7    C12.2,102.2,69.7,53.9,144.3,35.6L144.3,35.6L144.3,35.6L144.3,35.6z"></path>			<path class="st1" d="M150.1,39.1c61-13.6,111.9,5.9,110.5,49.3c-1.5,44-52.5,87.2-114.6,102C83.9,205.2,33.6,183.3,35,142    c1.1-32.3,27.9-64.5,66.7-85.1l5.3-2.4l49.7-4.4L150.1,39.1L150.1,39.1z"></path>			<path class="st0" d="M144.2,34.4c76.9-18.8,143.1-0.5,143.1,46.7c0,47.2-61.7,96-138.6,114.8C71.9,214.7,8.4,193.7,8.4,149.4    C8.4,102.3,67.4,53.2,144.2,34.4L144.2,34.4L144.2,34.4L144.2,34.4z M144.5,37.7C215.7,19.9,277,37.6,277,82.8    c0,45.2-57.2,91.8-128.4,109.7c-71.2,17.9-130.1-2.4-130.1-44.9C18.6,102.6,73.3,55.6,144.5,37.7L144.5,37.7L144.5,37.7    L144.5,37.7z"></path>			<path class="st3" d="M238.6,10.1c14.4-1,26.1,9.9,26.1,24.2c0,14.4-11.7,26.9-26.1,27.9c-14.4,1-26.1-9.9-26.1-24.2    C212.5,23.7,224.2,11.1,238.6,10.1"></path>			<path class="st3" d="M192.5,81.6c-1.4,0.9-2.3,1.4-2.4,1.5c-22.2,12.8-42.8,25.8-57.9,39.2c24.1-3.6,64.4-14.9,76.1,14.2    c3.3,8,2.6,16.7-1.5,25.9c-0.2,0.3-1,1.9-1.7,3.4c-15.3,9.6-33,17.5-51.9,22.7c14-11.5,44.4-38.4,27.5-45.7    c-16.6-7.1-77.1,21.2-76.1-18c0.5-19.4,33.4-37.3,68.6-59.2c1.5,0.1,2.9,0.2,4.4,0.4l1.7,0.3l3,0.9c2.1,1,3.6,1.9,5.2,3.6    c1.4,1.8,2.3,3.5,3.2,5.6C191.5,78.2,192.1,79.9,192.5,81.6L192.5,81.6z"></path>			<path class="st3" d="M102.8,140c-0.3,0.5-0.5,0.8-0.5,0.9c-12.6,21.4-34.2,27.2-64.7,17.5c0,0-0.1,0-0.2-0.1    c4.5,12.8,14.9,22.7,29.4,29c23.8-1.1,43.2-11.9,56.6-36c0,0,0.1-0.1,0.1-0.2l-3.6-0.4l-3-0.7l-2.9-0.9l-2.8-1.2l-2.6-1.6l-2.4-2    l-2.1-2.4L102.8,140L102.8,140z"></path>			<path class="st3" d="M119.7,75.1c33.3-14.9,59.8-19.7,71-8.9c11.6,11.1,7.2,41.3,20.9,51.7c20.8,15.8,41.3-18.3,50.4-35l0.6-1.1    h0c2.1-3.6,1.8-6.2-0.6-6l-19.6,1.8c-2.2,0.2-5.7,2.8-8.1,6.1c-2.6,3.9-5.3,7.7-8.2,11.5c-4-38.4-17.2-54.3-41.7-58.4    c-18.8-3.2-43.5,3.7-67.2,13.5l-1.8,0.8c-3.4,1.4-6.9,3-10.3,4.5c-2.5,1.9-4.4,6.2-4.5,10.4l-0.2,8.5c-0.1,4.9,2.3,7.8,5.3,6.6    L119.7,75.1L119.7,75.1z"></path>		</g>	</g></g></svg>